<?xml version="1.0" encoding="UTF-8" standalone="no"?>
<svg width="28px" height="21px" viewBox="0 0 28 21" version="1.1" xmlns="http://www.w3.org/2000/svg" xmlns:xlink="http://www.w3.org/1999/xlink">
    <!-- Generator: Sketch 40.2 (33826) - http://www.bohemiancoding.com/sketch -->
    <title>Icon Contact us</title>
    <desc>Created with Sketch.</desc>
    <defs></defs>
    <g id="Symbols" stroke="none" stroke-width="1" fill="none" fill-rule="evenodd">
        <g id="Headerbar" transform="translate(-1136.000000, -33.000000)" fill="#002B52">
            <g id="Headerbar-dark">
                <g id="Button-Contact-us" transform="translate(1119.000000, 21.000000)">
                    <path d="M30.9790055,26.46 L27.5475403,23.45832 L17.7365613,31.86342 C18.0931801,32.19408 18.5746155,32.4 19.1055812,32.4 L42.8524298,32.4 C43.3814144,32.4 43.8608685,32.19408 44.2155061,31.86342 L34.4104707,23.45832 L30.9790055,26.46 Z M44.2214497,13.13658 C43.8648309,12.80394 43.3853768,12.6 42.8524298,12.6 L19.1055812,12.6 C18.5765967,12.6 18.0971425,12.80592 17.7405238,13.14054 L30.9790055,24.48 L44.2214497,13.13658 Z M17.1104972,14.33844 L17.1104972,30.78828 L26.6857116,22.65642 L17.1104972,14.33844 Z M35.2722994,22.65642 L44.8475138,30.78828 L44.8475138,14.3325 L35.2722994,22.65642 Z" id="Icon-Contact-us"></path>
                </g>
            </g>
        </g>
    </g>
</svg>