<svg id="SvgjsSvg1013" xmlns="http://www.w3.org/2000/svg" version="1.1" xmlns:xlink="http://www.w3.org/1999/xlink" xmlns:svgjs="http://svgjs.com/svgjs" width="41" height="41" viewBox="0 0 41 41"><title>Shape</title><desc>Created with Avocode.</desc><defs id="SvgjsDefs1014"></defs><path id="SvgjsPath1015" d="M479 1040.2C479 1051.3600000000001 488.04 1060.4 499.2 1060.4C510.36 1060.4 519.4 1051.3600000000001 519.4 1040.2C519.4 1029.04 510.35999999999996 1020 499.2 1020C488.03999999999996 1020 479 1029.04 479 1040.2ZM516.03 1040.2C516.03 1049.48 508.47999999999996 1057.03 499.2 1057.03C489.92 1057.03 482.37 1049.48 482.37 1040.2C482.37 1030.92 489.92 1023.37 499.2 1023.37C508.47999999999996 1023.37 516.03 1030.92 516.03 1040.2ZM494.15 1031.78L509.29999999999995 1040.45L494.15 1048.6200000000001Z " fill="#ffffff" fill-opacity="1" transform="matrix(1,0,0,1,-479,-1020)"></path></svg>