<?xml version="1.0" encoding="UTF-8" standalone="no"?>
<svg width="325px" height="55px" viewBox="0 0 325 55" version="1.1" xmlns="http://www.w3.org/2000/svg" xmlns:xlink="http://www.w3.org/1999/xlink">
    <!-- Generator: Sketch 40.3 (33839) - http://www.bohemiancoding.com/sketch -->
    <title>Logo_Nokia</title>
    <desc>Created with Sketch.</desc>
    <defs></defs>
    <g id="Page-1" stroke="none" stroke-width="1" fill="none" fill-rule="evenodd">
        <g id="Innovation_&amp;_partnership" transform="translate(-209.000000, -3080.000000)" fill="#002B52">
            <g id="Further-partnerships" transform="translate(70.000000, 2399.000000)">
                <g id="Nokia" transform="translate(139.000000, 673.000000)">
                    <path d="M15.64875,62.2900367 L0,62.2900367 L0,8.88866406 L27.064375,8.88866406 L58.1140625,48.7562537 L58.1140625,8.88866406 L73.7628125,8.88866406 L73.7628125,62.2900367 L47.246875,62.2900367 L15.64875,21.7416815 L15.64875,62.2900367 M148.634687,45.7763756 C148.634687,53.199574 147.326562,55.7595787 145.16125,58.213596 C141.842187,61.8660869 137.011875,62.9667258 127.704687,62.9667258 L100.985625,62.9667258 C91.6784375,62.9667258 86.84,61.8660869 83.525,58.213596 C81.3596875,55.7595787 80.0515625,53.199574 80.0515625,45.7763756 L80.0515625,25.1903503 C80.0515625,17.7712283 81.3596875,15.2153 83.525,12.7572062 C86.8440625,9.10063898 91.6784375,8 100.985625,8 L127.704687,8 C137.011875,8 141.842187,9.10063898 145.16125,12.7572062 C147.326562,15.2153 148.634687,17.7712283 148.634687,25.1903503 L148.634687,45.7763756 M127.046562,49.4370193 C130.621562,49.4370193 131.880937,49.2250444 132.738125,48.4423678 C133.538437,47.7126849 133.891875,46.7710271 133.891875,43.6321678 L133.891875,27.334558 C133.891875,24.1956987 133.538437,23.2621938 132.738125,22.5284345 C131.880937,21.7416815 130.621562,21.533783 127.046562,21.533783 L101.639687,21.533783 C98.0646875,21.533783 96.8053125,21.7416815 95.9521875,22.5284345 C95.1478125,23.2621938 94.794375,24.1956987 94.794375,27.334558 L94.794375,43.6321678 C94.794375,46.7710271 95.1478125,47.7126849 95.9521875,48.4423678 C96.8053125,49.2250444 98.0646875,49.4370193 101.639687,49.4370193 L127.046562,49.4370193 L127.046562,49.4370193 M171.376562,8.88866406 L171.376562,62.2900367 L155.025,62.2900367 L155.025,8.88866406 L171.376562,8.88866406 M199.001562,8.88866406 L220.589687,8.88866406 L191.453437,33.865016 L224.315,62.2900367 L201.215625,62.2900367 L171.376562,34.4397941 L199.001562,8.88866406 M227.329375,8.88866406 L243.685,8.88866406 L243.685,62.2900367 L227.329375,62.2900367 M306.032188,62.2900367 L301.19375,52.9875991 L269.550938,52.9875991 L264.769375,62.2859602 L246.703438,62.2859602 L275.689375,8.88866406 L296.018125,8.88866406 L325,62.2900367 L306.032188,62.2900367 M275.234375,41.3901254 L295.567187,41.3901254 L285.39875,22.0555674 L275.234375,41.3901254" id="Logo_Nokia"></path>
                </g>
            </g>
        </g>
    </g>
</svg>