<?xml version="1.0" encoding="UTF-8" standalone="no"?>
<svg width="1440px" height="337px" viewBox="0 0 1440 337" version="1.1" xmlns="http://www.w3.org/2000/svg" xmlns:xlink="http://www.w3.org/1999/xlink">
    <!-- Generator: Sketch 40.2 (33826) - http://www.bohemiancoding.com/sketch -->
    <title>Group 3</title>
    <desc>Created with Sketch.</desc>
    <defs></defs>
    <g id="Page-1" stroke="none" stroke-width="1" fill="none" fill-rule="evenodd">
        <g id="European_Aviation_Network" transform="translate(0.000000, -2370.000000)">
            <g id="Commercially-attractive" transform="translate(0.000000, 2093.000000)">
                <g id="Group-3" transform="translate(0.000000, 277.000000)">
                    <g id="Säulendiagram" transform="translate(719.500000, 165.000000) scale(-1, 1) translate(-719.500000, -165.000000) translate(40.000000, 0.000000)" fill="#002B52">
                        <polygon id="Fill-46" points="1260 329.792148 1358.83409 329.792148 1358.83409 0 1260 0"></polygon>
                        <polygon id="Fill-48" points="1120 329.792148 1218.84468 329.792148 1218.84468 124 1120 124"></polygon>
                        <polygon id="Fill-52" points="980 329.792148 1078.84468 329.792148 1078.84468 92 980 92"></polygon>
                        <polygon id="Fill-42" points="840 329.792148 938.834093 329.792148 938.834093 150.710938 840 150.710938"></polygon>
                        <polygon id="Fill-44" points="700 329.792148 798.834093 329.792148 798.834093 191.453983 700 191.453983"></polygon>
                        <polygon id="Fill-46" points="560 329.792148 658.834093 329.792148 658.834093 129 560 129"></polygon>
                        <polygon id="Fill-48" points="420 329.792148 518.844684 329.792148 518.844684 164 420 164"></polygon>
                        <polygon id="Fill-50" points="280 329.792148 378.844684 329.792148 378.844684 205 280 205"></polygon>
                        <polygon id="Fill-52" points="140 329.792148 238.844684 329.792148 238.844684 241 140 241"></polygon>
                        <polygon id="Fill-54" points="-4.97379915e-14 329.792148 98.8446843 329.792148 98.8446843 281 -4.97379915e-14 281"></polygon>
                    </g>
                    <path d="M1440,332.613281 L0,331.993424" id="Achsen" stroke="#002B52" stroke-width="8"></path>
                </g>
            </g>
        </g>
    </g>
</svg>