<?xml version="1.0" encoding="UTF-8" standalone="no"?>
<svg width="358px" height="43px" viewBox="0 0 358 43" version="1.1" xmlns="http://www.w3.org/2000/svg" xmlns:xlink="http://www.w3.org/1999/xlink">
    <!-- Generator: Sketch 40.3 (33839) - http://www.bohemiancoding.com/sketch -->
    <title>Logo Thales</title>
    <desc>Created with Sketch.</desc>
    <defs></defs>
    <g id="Page-1" stroke="none" stroke-width="1" fill="none" fill-rule="evenodd">
        <g id="Innovation_&amp;_partnership" transform="translate(-177.000000, -3896.000000)" fill="#002B52">
            <g id="Further-partnerships" transform="translate(70.000000, 2399.000000)">
                <g id="Thales" transform="translate(107.000000, 1486.000000)">
                    <g id="Logo-Thales" transform="translate(0.000000, 11.000000)">
                        <path d="M357.695794,31.5679091 C357.695794,37.3917 356.02495,39.1088669 351.452124,40.5079389 C346.49601,42.0321147 337.700065,42.9743655 332.461409,42.9743655 C326.262516,42.9743655 318.538527,42.5627268 311.947838,41.0331018 L311.947838,34.2981659 L348.309468,34.2981659 L348.309468,25.1481163 L322.574032,25.1481163 C314.835938,25.1481163 311.956345,22.9884322 311.956345,15.3255495 L311.956345,11.3265464 C311.956345,5.28705963 313.71943,3.46499641 318.552632,2.19647713 C323.419193,0.919330018 331.392141,0.096279655 336.594751,0.096279655 C342.916556,0.096279655 350.512036,0.595786082 357.122204,2.08000132 L357.122204,8.81493729 L321.342671,8.81493729 L321.342671,16.5543353 L347.080794,16.5543353 C354.815977,16.5543353 357.695794,18.6688368 357.695794,26.3317195 L357.695794,31.5679091 Z M295.679997,41.0415026 C288.143622,42.5570505 280.553964,42.9741384 273.210577,42.9741384 C265.864279,42.9741384 258.13738,42.5570505 250.598319,41.0415026 L250.598319,2.08000132 C258.13738,0.564453406 265.772039,0.0960526067 273.118113,0.0960526067 C280.467097,0.0960526067 287.964515,0.564453406 295.50089,2.08000132 L295.50089,9.03063325 L261.45668,9.03063325 L261.45668,16.8154409 L283.623857,16.8154409 L283.623857,24.8983631 L261.45668,24.8983631 L261.45668,34.0908707 L295.679997,34.0908707 L295.679997,41.0415026 Z M237.601867,41.0415026 C230.837892,42.5627268 224.017721,42.9741384 217.466211,42.9741384 C210.914925,42.9741384 203.954827,42.5627268 197.193538,41.0415026 L197.193538,1.06395983 L208.046303,1.06395983 L208.046303,33.5772873 L237.601867,33.5772873 L237.601867,41.0415026 Z M184.177609,41.2855796 C180.564797,42.33863 175.787566,42.7130328 172.227814,42.7754711 L155.517803,8.54247924 L154.583089,8.54247924 L137.875764,42.7754711 C134.313102,42.7130328 130.118193,42.33863 126.508067,41.2855796 L147.667768,1.08394009 L162.754845,1.08394009 L184.177609,41.2855796 Z M113.424749,41.3309893 C109.960148,42.3413546 106.252185,42.7103082 102.569298,42.7754711 L102.569298,25.3100018 L75.608098,25.3100018 L75.608098,42.7754711 C71.9223,42.7103082 68.2199345,42.3413546 64.7553336,41.3309893 L64.7553336,1.83319973 C68.2199345,0.819882829 71.9223,0.453880847 75.608098,0.385539286 L75.608098,17.2411566 L102.569298,17.2411566 L102.569298,0.385539286 C106.252185,0.453880847 109.954551,0.819882829 113.424749,1.83319973 L113.424749,41.3309893 Z M49.6346733,9.13257797 L30.598958,9.13257797 L30.598958,42.0745727 L19.8525383,42.0745727 L19.8525383,9.13257797 L0.816823,9.13257797 L0.816823,2.09975452 C9.01365462,0.586931196 17.2469793,0.115805815 25.2508231,0.115805815 C33.2434728,0.115805815 41.4544091,0.589882824 49.6346733,2.09975452 L49.6346733,9.13257797 Z" id="Combined-Shape"></path>
                        <path d="M162.130657,31.0684027 C162.130657,35.0020158 158.937404,38.1947701 155.058618,38.1947701 C151.174235,38.1947701 148.034489,34.9963396 148.034489,31.0684027 C148.034489,27.1375142 151.182742,23.9447599 155.058618,23.9447599 C158.92912,23.9447599 162.130657,27.1291134 162.130657,31.0684027" id="path36836"></path>
                    </g>
                </g>
            </g>
        </g>
    </g>
</svg>