<svg id="SvgjsSvg1000" xmlns="http://www.w3.org/2000/svg" version="1.1" xmlns:xlink="http://www.w3.org/1999/xlink" xmlns:svgjs="http://svgjs.com/svgjs" width="28" height="20" viewBox="0 0 28 20"><title>Icon Contact us</title><desc>Created with Avocode.</desc><defs id="SvgjsDefs1001"></defs><path id="SvgjsPath1007" d="M1161.74 34L1138 34C1137.47 34 1136.99 34.21 1136.63 34.54L1149.8700000000001 45.879999999999995L1163.1100000000001 34.53999999999999C1162.7500000000002 34.19999999999999 1162.2700000000002 33.99999999999999 1161.7400000000002 33.99999999999999ZM1146.44 44.86L1136.63 53.26C1136.98 53.589999999999996 1137.46 53.8 1138 53.8L1161.74 53.8C1162.27 53.8 1162.75 53.589999999999996 1163.11 53.26L1153.3 44.86L1149.87 47.86ZM1136 35.74L1136 52.19L1145.58 44.059999999999995ZM1154.16 44.06L1163.74 52.190000000000005L1163.74 35.730000000000004Z " fill="#ffffff" fill-opacity="1" transform="matrix(1,0,0,1,-1136,-34)"></path></svg>