<?xml version="1.0" encoding="UTF-8"?>
<svg width="63px" height="63px" viewBox="0 0 63 63" version="1.1" xmlns="http://www.w3.org/2000/svg" xmlns:xlink="http://www.w3.org/1999/xlink">
    <!-- Generator: Sketch 41 (35326) - http://www.bohemiancoding.com/sketch -->
    <title>Button Photo</title>
    <desc>Created with Sketch.</desc>
    <defs></defs>
    <g id="Page-1" stroke="none" stroke-width="1" fill="none" fill-rule="evenodd">
        <g id="Newsroom" transform="translate(-1093.000000, -1612.000000)">
            <g id="Media-Kit" transform="translate(150.000000, 1160.000000)">
                <g id="Photos" transform="translate(810.000000, 336.000000)">
                    <g id="Button-Photo" transform="translate(133.000000, 116.000000)">
                        <g>
                            <rect id="Rectangle-6" fill="#002B52" x="0" y="0" width="63" height="63"></rect>
                            <path d="M49,19 L49,43.5555556 L15,43.5555556 L15,19 L49,19 L49,19 Z M24.4444444,22.7777778 L18.7777778,22.7777778 L18.7777778,26.5555556 L24.4444444,26.5555556 L24.4444444,22.7777778 L24.4444444,22.7777778 Z M45.2222222,32.2222222 C45.2222222,28.0496667 41.8392222,24.6666667 37.6666667,24.6666667 C33.4941111,24.6666667 30.1111111,28.0496667 30.1111111,32.2222222 C30.1111111,36.3947778 33.4941111,39.7777778 37.6666667,39.7777778 C41.8392222,39.7777778 45.2222222,36.3947778 45.2222222,32.2222222 L45.2222222,32.2222222 Z M37.6666667,28.4444444 C35.5813333,28.4444444 33.8888889,30.1387778 33.8888889,32.2222222 C33.8888889,34.3056667 35.5813333,36 37.6666667,36 C39.752,36 41.4444444,34.3056667 41.4444444,32.2222222 C41.4444444,30.1387778 39.752,28.4444444 37.6666667,28.4444444 L37.6666667,28.4444444 Z" id="Icon-Photo" fill="#FFFFFF"></path>
                        </g>
                    </g>
                </g>
            </g>
        </g>
    </g>
</svg>