<?xml version="1.0" encoding="UTF-8" standalone="no"?>
<svg width="356px" height="38px" viewBox="0 0 356 38" version="1.1" xmlns="http://www.w3.org/2000/svg" xmlns:xlink="http://www.w3.org/1999/xlink">
    <!-- Generator: Sketch 40.3 (33839) - http://www.bohemiancoding.com/sketch -->
    <title>Logo Cobham</title>
    <desc>Created with Sketch.</desc>
    <defs></defs>
    <g id="Page-1" stroke="none" stroke-width="1" fill="none" fill-rule="evenodd">
        <g id="Innovation_&amp;_partnership" transform="translate(-178.000000, -2607.000000)" fill="#002B52">
            <g id="Further-partnerships" transform="translate(70.000000, 2399.000000)">
                <g id="Cobham" transform="translate(108.000000, 184.000000)">
                    <path d="M331.589173,24.0017704 C328.971046,24.0017704 326.214562,25.0480988 323.864279,26.7459481 C322.752107,25.0480988 320.760131,24.0017704 318.138456,24.0017704 L301.290914,24.0017704 C295.985481,24.0017704 290.114206,28.3039328 288.184313,33.5993105 L278.047052,61.4040267 L293.418794,61.4040267 L303.556055,33.5993105 C304.136087,32.0129988 305.893922,30.7258909 307.490341,30.7258909 L312.293788,30.7258909 C313.883112,30.7258909 314.702607,32.0129988 314.124349,33.5993105 L303.928553,61.4040267 L319.302068,61.4040267 L329.494317,33.5993105 C330.077896,32.0129988 331.835731,30.7258909 333.430376,30.7258909 L338.233824,30.7258909 C339.824922,30.7258909 340.642643,32.0129988 340.066158,33.5993105 L329.870362,61.4040267 L345.24033,61.4040267 L355.381138,33.5993105 C357.309258,28.3039328 354.582929,24.0017704 349.273949,24.0017704 L331.589173,24.0017704 Z M242.984369,48.9436897 C241.389724,48.9436897 239.633663,50.2290271 239.051857,51.8171092 L235.553925,61.4040267 L220.183957,61.4040267 L230.32654,33.5993105 C232.252885,28.3021624 238.12416,24.0017704 243.429592,24.0017704 L276.097647,24.0017704 C281.401306,24.0017704 284.13473,28.3021624 282.204837,33.5993105 L272.062255,61.4040267 L256.695835,61.4040267 L261.238534,48.9436897 L242.984369,48.9436897 Z M260.802179,42.2301918 C262.395051,42.2301918 264.156433,40.9413135 264.732918,39.3532314 L266.831322,33.5993105 C267.40958,32.0129988 266.591859,30.7258909 264.997214,30.7258909 L249.62902,30.7258909 C248.036148,30.7258909 246.27654,32.0129988 245.696507,33.5993105 L242.548014,42.2301918 L260.802179,42.2301918 Z M167.706116,34.2773879 L167.961543,33.6010809 C169.887889,28.3021624 167.149143,24 161.849032,24 L129.177429,24 C123.87377,24 118.009591,28.3021624 116.077924,33.6010809 L105.933568,61.4057971 L148.20497,61.4057971 C153.513951,61.4057971 159.37813,57.1142573 161.313344,51.8188797 L161.551034,51.1638179 C162.883157,47.5149469 162.001578,44.340553 159.582117,42.7188325 C163.179381,41.1006529 166.37754,37.9244886 167.706116,34.2773879 L167.706116,34.2773879 Z M129.349488,39.3532314 L131.446118,33.6010809 C132.027924,32.0112283 133.787533,30.7241205 135.380404,30.7241205 L150.748598,30.7241205 C152.343243,30.7241205 153.166286,32.0112283 152.582706,33.6010809 L151.536165,36.4762709 C150.954359,38.0643531 149.19475,39.3532314 147.601879,39.3532314 L129.349488,39.3532314 Z M123.753152,54.6940697 L125.85333,48.9419192 C126.429815,47.3556075 128.192971,46.0649588 129.782295,46.0649588 L145.159358,46.0649588 C146.748681,46.0649588 147.56995,47.3556075 146.989918,48.9419192 L145.938055,51.8188797 C145.363344,53.4069618 143.60551,54.6940697 142.012638,54.6940697 L123.753152,54.6940697 Z M58.1296867,61.4057971 C52.8207065,61.4057971 50.0855085,57.1142573 52.0189494,51.8188797 L58.6689216,33.6010809 C60.5934934,28.3021624 66.4612203,24 71.7631053,24 L104.432934,24 C109.736593,24 112.477112,28.3021624 110.540124,33.6010809 L103.900794,51.8188797 C101.969127,57.1142573 96.0978529,61.4057971 90.7941941,61.4057971 L58.1296867,61.4057971 Z M84.5947668,54.6940697 C86.1858644,54.6940697 87.9472468,53.4069618 88.527279,51.8188797 L95.170156,33.6010809 C95.7519621,32.0112283 94.9289194,30.7241205 93.3378217,30.7241205 L77.9696278,30.7241205 C76.3732087,30.7241205 74.6118264,32.0112283 74.0317941,33.6010809 L66.3778517,54.6905288 L84.5947668,54.6940697 Z M17.8218797,54.6940697 C16.2325559,54.6940697 15.411287,53.4069618 15.9859978,51.8188797 L22.6306486,33.6010809 C23.2124547,32.0112283 24.9756108,30.7241205 26.5667085,30.7241205 L55.3377272,30.7241205 C55.5328451,26.8362404 52.9182654,24 48.616803,24 L20.3672812,24 C15.0600748,24 9.19412171,28.3021624 7.26422847,33.6010809 L0.617803862,51.8188797 C-1.31031558,57.1142573 1.42488238,61.4057971 6.73208879,61.4057971 L34.9798368,61.4057971 C39.2848468,61.4057971 43.9517118,58.5837202 46.5946722,54.6940697 L17.8218797,54.6940697 Z M202.83443,42.2301918 C204.425528,42.2301918 206.18691,40.9413135 206.763395,39.3532314 L208.861799,33.5993105 C210.793466,28.3021624 216.661193,24.0017704 221.961304,24.0017704 L227.731472,24.0017704 L214.090958,61.4040267 L198.715669,61.4040267 L203.269011,48.9436897 L185.013072,48.9436897 C183.421974,48.9436897 181.66414,50.2290271 181.082334,51.8171092 L177.584402,61.4040267 L162.214434,61.4040267 L172.353469,33.5993105 C174.285136,28.3021624 180.152863,24.0017704 185.461843,24.0017704 L191.221368,24.0017704 L184.576718,42.2301918 L202.83443,42.2301918 Z" id="Logo-Cobham"></path>
                </g>
            </g>
        </g>
    </g>
</svg>