<?xml version="1.0" encoding="UTF-8" standalone="no"?>
<svg width="221px" height="137px" viewBox="0 0 221 137" version="1.1" xmlns="http://www.w3.org/2000/svg" xmlns:xlink="http://www.w3.org/1999/xlink">
    <!-- Generator: Sketch 40.3 (33839) - http://www.bohemiancoding.com/sketch -->
    <title>Logo_OTE</title>
    <desc>Created with Sketch.</desc>
    <defs></defs>
    <g id="Page-1" stroke="none" stroke-width="1" fill="none" fill-rule="evenodd">
        <g id="Innovation_&amp;_partnership" transform="translate(-313.000000, -3537.000000)" fill="#002B52">
            <g id="Further-partnerships" transform="translate(70.000000, 2399.000000)">
                <g id="OTE" transform="translate(243.000000, 1130.000000)">
                    <g id="Logo_OTE" transform="translate(0.000000, 8.000000)">
                        <path d="M135.956935,50.1682942 C136.247455,45.8681547 135.666415,41.2813392 135.956935,36.9811997 L85.4064698,36.9811997 L85.4064698,50.4549701 L103.999744,50.4549701 L104.290264,50.7416461 L103.999744,50.7416461 L103.999744,77.689187 L103.999744,97.1831527 L103.999744,101.483292 C108.357543,101.769968 112.715342,101.483292 117.07314,101.483292 L117.07314,101.483292 L117.07314,57.3351933 L117.07314,50.7416461 L117.07314,50.4549701 C122.883539,50.1682942 129.856017,50.1682942 135.956935,50.1682942 L135.956935,50.1682942 L135.956935,50.1682942 L135.956935,50.1682942 Z" id="Shape"></path>
                        <path d="M54.9018788,36.6945237 C36.8896441,36.6945237 22.3636484,51.0283221 22.3636484,68.802232 C22.3636484,86.5761419 36.8896441,100.90994 54.9018788,100.90994 C72.9141134,100.90994 87.7306291,86.5761419 87.7306291,68.802232 C87.4401092,51.0283221 72.9141134,36.6945237 54.9018788,36.6945237 M54.9018788,88.0095218 C44.1526419,88.0095218 35.4370445,79.4092428 35.4370445,68.802232 C35.4370445,58.1952212 44.1526419,49.5949422 54.9018788,49.5949422 C65.6511156,49.5949422 74.366713,58.1952212 74.366713,68.802232 C74.366713,79.4092428 65.6511156,88.0095218 54.9018788,88.0095218" id="Shape"></path>
                        <path d="M166.752046,49.8816182 C173.724524,49.8816182 179.825442,53.6084058 183.021161,58.7685732 L194.351438,51.88835 C188.541039,42.714719 178.372842,36.9811997 166.752046,36.6945237 C148.739811,36.6945237 133.923295,51.0283221 133.923295,68.802232 C133.923295,86.5761419 148.449291,100.90994 166.461526,100.90994 C178.082322,100.90994 187.96,95.1764209 194.060918,86.289466 L183.021161,79.1225668 C179.534922,84.2827342 173.434004,88.0095218 166.752046,87.7228458 C158.036448,87.7228458 150.77345,81.9893265 148.158771,74.2490754 L176.629723,74.2490754 L176.629723,61.9220088 L148.449291,61.9220088 C151.35449,55.3284616 158.326968,49.8816182 166.752046,49.8816182" id="Shape"></path>
                        <path d="M110.681702,0.8600279 C49.9630402,0.8600279 0.86517469,30.9610044 0.574654776,68.515556 C0.574654776,106.070108 49.6725203,136.45776 110.391182,136.45776 C171.109844,136.45776 220.20771,106.356784 220.49823,68.802232 C220.49823,31.5343563 171.400364,1.14670387 110.681702,0.8600279 M110.391182,128.430833 C47.6388809,128.430833 4.35141366,102.916672 4.35141366,68.802232 C4.35141366,33.2544121 49.3820004,9.17363093 110.681702,9.4603069 C173.143484,9.4603069 216.721471,34.9744679 216.721471,69.3755839 C216.721471,104.636728 171.690884,128.430833 110.391182,128.430833" id="Shape"></path>
                        <path d="M135.956935,50.1682942 C136.247455,45.8681547 135.666415,41.2813392 135.956935,36.9811997 L85.4064698,36.9811997 L85.4064698,50.4549701 L103.999744,50.4549701 L104.290264,50.7416461 L103.999744,50.7416461 L103.999744,77.689187 L103.999744,97.1831527 L103.999744,101.483292 C108.357543,101.769968 112.715342,101.483292 117.07314,101.483292 L117.07314,101.483292 L117.07314,57.3351933 L117.07314,50.7416461 L117.07314,50.4549701 C122.883539,50.1682942 129.856017,50.1682942 135.956935,50.1682942 L135.956935,50.1682942 L135.956935,50.1682942 L135.956935,50.1682942 Z" id="Shape"></path>
                        <path d="M54.9018788,36.6945237 C36.8896441,36.6945237 22.3636484,51.0283221 22.3636484,68.802232 C22.3636484,86.5761419 36.8896441,100.90994 54.9018788,100.90994 C72.9141134,100.90994 87.7306291,86.5761419 87.7306291,68.802232 C87.4401092,51.0283221 72.9141134,36.6945237 54.9018788,36.6945237 M54.9018788,88.0095218 C44.1526419,88.0095218 35.4370445,79.4092428 35.4370445,68.802232 C35.4370445,58.1952212 44.1526419,49.5949422 54.9018788,49.5949422 C65.6511156,49.5949422 74.366713,58.1952212 74.366713,68.802232 C74.366713,79.4092428 65.6511156,88.0095218 54.9018788,88.0095218" id="Shape"></path>
                        <path d="M166.752046,49.8816182 C173.724524,49.8816182 179.825442,53.6084058 183.021161,58.7685732 L194.351438,51.88835 C188.541039,42.714719 178.372842,36.9811997 166.752046,36.6945237 C148.739811,36.6945237 133.923295,51.0283221 133.923295,68.802232 C133.923295,86.5761419 148.449291,100.90994 166.461526,100.90994 C178.082322,100.90994 187.96,95.1764209 194.060918,86.289466 L183.021161,79.1225668 C179.534922,84.2827342 173.434004,88.0095218 166.752046,87.7228458 C158.036448,87.7228458 150.77345,81.9893265 148.158771,74.2490754 L176.629723,74.2490754 L176.629723,61.9220088 L148.449291,61.9220088 C151.35449,55.3284616 158.326968,49.8816182 166.752046,49.8816182" id="Shape"></path>
                        <path d="M110.681702,0.8600279 C49.9630402,0.8600279 0.86517469,30.9610044 0.574654776,68.515556 C0.574654776,106.070108 49.6725203,136.45776 110.391182,136.45776 C171.109844,136.45776 220.20771,106.356784 220.49823,68.802232 C220.49823,31.5343563 171.400364,1.14670387 110.681702,0.8600279 M110.391182,128.430833 C47.6388809,128.430833 4.35141366,102.916672 4.35141366,68.802232 C4.35141366,33.2544121 49.3820004,9.17363093 110.681702,9.4603069 C173.143484,9.4603069 216.721471,34.9744679 216.721471,69.3755839 C216.721471,104.636728 171.690884,128.430833 110.391182,128.430833" id="Shape"></path>
                    </g>
                </g>
            </g>
        </g>
    </g>
</svg>